<svg width="178" height="98" viewBox="0 0 178 98" fill="none" xmlns="http://www.w3.org/2000/svg">
<g filter="url(#filter0_d)">
<rect x="4.5" y="0.5" width="169" height="89" rx="3.5" stroke="#AFB1B8"/>
<path d="M85.9769 21.9345H86.1135C86.3665 21.9345 86.6397 21.9599 86.9104 21.9828C88.103 22.067 89.2873 22.2455 90.452 22.5168V19.6535C89.2527 19.3526 88.0296 19.1578 86.7965 19.0712C86.3285 19.0356 85.8302 19.0127 85.3192 19H84.8917C82.4168 19.0093 79.9526 19.3271 77.5554 19.946C74.8252 20.6269 72.2046 21.6928 69.7715 23.1119V51.5086C72.1142 50.2357 74.607 49.2643 77.1912 48.6173C79.2315 48.0967 81.3174 47.7765 83.4193 47.6612H83.5028C83.8545 47.6434 84.2061 47.6332 84.5678 47.6306V44.7216C81.8366 44.7567 79.1192 45.1178 76.4727 45.7972C75.4937 46.0515 74.5476 46.3261 73.6597 46.6313L72.6478 46.9746V24.8334L73.0804 24.6249C76.3816 23.0595 79.9521 22.1486 83.5964 21.9421C83.6267 21.9399 83.6572 21.9399 83.6875 21.9421C84.0897 21.9218 84.4945 21.9116 84.8917 21.9116H85.3268H85.347C85.557 21.9167 85.7669 21.9218 85.9769 21.9345Z" fill="#AFB1B8"/>
<path d="M93.1108 24.9326C92.4455 24.9326 91.7877 24.9097 91.1528 24.8614C90.3939 24.8054 89.6147 24.7139 88.876 24.5893C88.4257 24.513 87.983 24.4215 87.553 24.3223V52.3935C89.3737 52.8443 91.2433 53.0647 93.1184 53.0496C95.5931 53.0395 98.0571 52.7227 100.455 52.1061C103.185 51.4243 105.807 50.3585 108.241 48.9402V21.0496C105.899 22.3218 103.407 23.294 100.824 23.9434C98.3031 24.5908 95.7125 24.9231 93.1108 24.9326ZM104.335 25.4183L105.347 25.0775V47.2263L104.914 47.4348C103.255 48.2243 101.522 48.8469 99.7412 49.2937C97.5781 49.8533 95.3544 50.1412 93.1209 50.1506C92.4531 50.1506 91.7903 50.1227 91.1477 50.0667L90.4546 50.0057V47.3178V27.2288L91.2616 27.2822C91.8485 27.3204 92.4556 27.3382 93.1158 27.3382C95.9514 27.3281 98.7749 26.966 101.522 26.26C102.466 26.0108 103.404 25.7311 104.335 25.4183Z" fill="#AFB1B8"/>
<path d="M71.7373 61.2124C71.5918 61.0615 71.4164 60.943 71.2225 60.8646C71.0286 60.7862 70.8204 60.7496 70.6115 60.7572C70.3889 60.7542 70.1679 60.7957 69.9614 60.8793C69.772 60.9547 69.5999 61.068 69.4554 61.2124C69.3126 61.3572 69.2014 61.5304 69.1291 61.721C69.0498 61.9207 69.0103 62.1341 69.0127 62.3491V66.1431C69.0037 66.4104 69.0547 66.6764 69.162 66.9212C69.2516 67.1156 69.3808 67.2889 69.5415 67.4298C69.6931 67.5575 69.8711 67.6495 70.0626 67.6994C70.2471 67.7512 70.4377 67.7777 70.6292 67.7782C70.8405 67.7803 71.0497 67.7351 71.2414 67.646C71.4311 67.563 71.6029 67.4438 71.7474 67.295C71.8883 67.1476 72.0006 66.9752 72.0788 66.7864C72.1599 66.5951 72.2012 66.3892 72.2002 66.1812V65.7566H71.2085V66.0948C71.2115 66.2103 71.1917 66.3252 71.1504 66.433C71.1181 66.5137 71.0689 66.5866 71.0062 66.6466C70.9447 66.6962 70.8743 66.7334 70.7987 66.7559C70.7318 66.7782 70.6618 66.7902 70.5913 66.7915C70.5028 66.8018 70.4131 66.7885 70.3313 66.7527C70.2496 66.717 70.1787 66.6602 70.1258 66.5881C70.0323 66.4356 69.9865 66.2585 69.9943 66.0795V62.5423C69.9881 62.3462 70.0298 62.1515 70.1157 61.9753C70.1672 61.8952 70.24 61.8313 70.3259 61.7908C70.4118 61.7503 70.5072 61.7349 70.6014 61.7464C70.6869 61.7434 70.7718 61.7612 70.8489 61.7984C70.926 61.8356 70.993 61.8911 71.0441 61.96C71.1551 62.1057 71.2131 62.2852 71.2085 62.4686V62.7966H72.1901V62.4101C72.1921 62.1831 72.1509 61.9578 72.0686 61.7464C71.9954 61.5476 71.8826 61.3659 71.7373 61.2124Z" fill="#AFB1B8"/>
<path d="M77.6289 61.1691C77.3127 60.9021 76.9136 60.7546 76.5007 60.7521C76.2987 60.7529 76.0984 60.7891 75.9087 60.8589C75.7161 60.9279 75.5384 61.0332 75.3851 61.1691C75.2208 61.3168 75.0897 61.498 75.0005 61.7006C74.9006 61.9323 74.8515 62.183 74.8563 62.4355V66.0744C74.8495 66.3304 74.8987 66.5847 75.0005 66.8195C75.0903 67.0151 75.2215 67.1887 75.3851 67.328C75.5367 67.4688 75.7147 67.5777 75.9087 67.6485C76.0984 67.7183 76.2987 67.7544 76.5007 67.7553C76.7027 67.7549 76.9031 67.7187 77.0926 67.6485C77.29 67.5767 77.4719 67.468 77.6289 67.328C77.7871 67.1861 77.9145 67.013 78.0033 66.8195C78.1051 66.5847 78.1544 66.3304 78.1475 66.0744V62.4355C78.1524 62.183 78.1032 61.9323 78.0033 61.7006C77.9151 61.5001 77.7878 61.3194 77.6289 61.1691ZM77.166 66.0744C77.1743 66.1714 77.1609 66.269 77.1268 66.3601C77.0926 66.4512 77.0386 66.5334 76.9687 66.6008C76.8377 66.7106 76.6725 66.7708 76.5019 66.7708C76.3313 66.7708 76.1662 66.7106 76.0352 66.6008C75.9652 66.5334 75.9112 66.4512 75.8771 66.3601C75.8429 66.269 75.8295 66.1714 75.8379 66.0744V62.4355C75.8295 62.3385 75.8429 62.2409 75.8771 62.1498C75.9112 62.0587 75.9652 61.9764 76.0352 61.9091C76.1662 61.7993 76.3313 61.7391 76.5019 61.7391C76.6725 61.7391 76.8377 61.7993 76.9687 61.9091C77.0386 61.9764 77.0926 62.0587 77.1268 62.1498C77.1609 62.2409 77.1743 62.3385 77.166 62.4355V66.0744Z" fill="#AFB1B8"/>
<path d="M85.3673 67.6994V60.8107H84.4136L83.1614 64.4572H83.1437L81.8813 60.8107H80.9377V67.6994H81.9218V63.5087H81.9395L82.9033 66.4712H83.3941L84.3655 63.5087H84.3832V67.6994H85.3673Z" fill="#AFB1B8"/>
<path d="M90.9579 61.2937C90.8064 61.1237 90.6151 60.9943 90.4014 60.9173C90.1711 60.8424 89.93 60.8063 89.688 60.8105H88.2258V67.6993H89.2074V65.0089H89.7133C90.0196 65.0228 90.3243 64.958 90.5987 64.8207C90.8219 64.6968 91.0079 64.515 91.1375 64.2943C91.2511 64.1111 91.3276 63.9071 91.3627 63.6942C91.4013 63.435 91.4191 63.173 91.4158 62.911C91.4253 62.5802 91.393 62.2495 91.3197 61.9269C91.2542 61.6885 91.1298 61.4706 90.9579 61.2937ZM90.452 63.3941C90.4477 63.5188 90.4167 63.6412 90.3609 63.7527C90.3048 63.8586 90.2161 63.9434 90.1079 63.9942C89.9625 64.0593 89.8039 64.0889 89.645 64.0807H89.1972V61.7387H89.7032C89.8555 61.7312 90.0074 61.7609 90.1459 61.8251C90.2474 61.8834 90.328 61.9724 90.3761 62.0794C90.4297 62.2004 90.459 62.331 90.4621 62.4634C90.4621 62.6084 90.4621 62.7609 90.4621 62.9211C90.4621 63.0813 90.4722 63.2466 90.4621 63.3941H90.452Z" fill="#AFB1B8"/>
<path d="M95.6077 60.8107H94.8032L93.2854 67.6994H94.2669L94.5553 66.2194H95.8935L96.1819 67.6994H97.1635L95.6077 60.8107ZM94.702 65.2811L95.1852 62.784H95.2029L95.6836 65.2811H94.702Z" fill="#AFB1B8"/>
<path d="M101.95 64.9607H101.932L100.449 60.8107H99.5059V67.6994H100.487V63.557H100.508L102.008 67.6994H102.931V60.8107H101.95V64.9607Z" fill="#AFB1B8"/>
<path d="M107.948 60.8107L107.158 63.5494H107.138L106.349 60.8107H105.309L106.657 64.7878V67.6994H107.639V64.7878L108.987 60.8107H107.948Z" fill="#AFB1B8"/>
<path d="M69 69.6445H69.4731V70.9719H69.7943V69.6445H70.2649V69.3724H69V69.6445Z" fill="#AFB1B8"/>
<path d="M72.9767 69.3724L72.3569 70.9719H72.6984L72.83 70.6083H73.4675L73.6041 70.9719H73.9532L73.3182 69.3724H72.9767ZM72.9261 70.3387L73.1437 69.7462L73.3612 70.3387H72.9261Z" fill="#AFB1B8"/>
<path d="M76.9079 70.3821H77.2773V70.5881C77.1694 70.6746 77.0358 70.722 76.8978 70.7229C76.8333 70.7265 76.7689 70.7145 76.7099 70.688C76.6509 70.6614 76.5991 70.6211 76.5588 70.5703C76.474 70.4485 76.4322 70.3017 76.4399 70.1533C76.4399 69.7973 76.5942 69.6193 76.9003 69.6193C76.9809 69.6112 77.0617 69.6325 77.128 69.6791C77.1944 69.7257 77.2419 69.7947 77.2621 69.8735L77.5783 69.8125C77.51 69.4997 77.2849 69.3421 76.9003 69.3421C76.6947 69.3366 76.4947 69.4103 76.3413 69.5481C76.2607 69.6276 76.1983 69.7239 76.1586 69.8302C76.1188 69.9365 76.1026 70.0502 76.1111 70.1634C76.1017 70.3823 76.1749 70.5966 76.316 70.7636C76.3943 70.8444 76.4892 70.9071 76.594 70.9475C76.6988 70.9879 76.8111 71.0049 76.9231 70.9975C77.1734 71.0045 77.4165 70.9133 77.6011 70.7432V70.1126H76.9079V70.3821Z" fill="#AFB1B8"/>
<path d="M80.9227 69.3724H80.5989V70.9719H81.7195V70.6998H80.9227V69.3724Z" fill="#AFB1B8"/>
<path d="M84.3175 69.3724H83.9937V70.9719H84.3175V69.3724Z" fill="#AFB1B8"/>
<path d="M87.6364 70.4405L86.9812 69.3724H86.6675V70.9719H86.9685V69.9268L87.6111 70.9719H87.9323V69.3724H87.6364V70.4405Z" fill="#AFB1B8"/>
<path d="M90.6368 70.2675H91.4337V69.9954H90.6368V69.6445H91.4944V69.3724H90.313V70.9719H91.5273V70.6998H90.6368V70.2675Z" fill="#AFB1B8"/>
<path d="M97.9121 70.0031H97.2822V69.3724H96.9609V70.9719H97.2822V70.2726H97.9121V70.9719H98.2334V69.3724H97.9121V70.0031Z" fill="#AFB1B8"/>
<path d="M100.93 70.2675H101.73V69.9954H100.93V69.6445H101.79V69.3724H100.609V70.9719H101.821V70.6998H100.93V70.2675Z" fill="#AFB1B8"/>
<path d="M105.023 70.2676C105.302 70.2244 105.443 70.0769 105.443 69.8226C105.451 69.7546 105.441 69.6856 105.413 69.623C105.386 69.5603 105.342 69.5063 105.286 69.4666C105.141 69.3938 104.98 69.3614 104.818 69.3725H104.14V70.972H104.462V70.3032H104.525C104.593 70.299 104.662 70.3112 104.725 70.3388C104.772 70.3678 104.811 70.4079 104.839 70.4558L105.188 70.9644H105.572L105.377 70.6516C105.291 70.4972 105.17 70.3656 105.023 70.2676ZM104.699 70.0464H104.462V69.6446H104.715C104.825 69.6357 104.936 69.6486 105.041 69.6827C105.064 69.7034 105.083 69.7291 105.095 69.7579C105.107 69.7867 105.113 69.8179 105.111 69.8492C105.11 69.8804 105.101 69.911 105.087 69.9385C105.072 69.966 105.051 69.9899 105.026 70.0082C104.92 70.0406 104.81 70.0535 104.699 70.0464Z" fill="#AFB1B8"/>
<path d="M108.109 70.2675H108.906V69.9954H108.109V69.6445H108.97V69.3724H107.786V70.9719H109V70.6998H108.109V70.2675Z" fill="#AFB1B8"/>
</g>
<defs>
<filter id="filter0_d" x="0" y="0" width="178" height="98" filterUnits="userSpaceOnUse" color-interpolation-filters="sRGB">
<feFlood flood-opacity="0" result="BackgroundImageFix"/>
<feColorMatrix in="SourceAlpha" type="matrix" values="0 0 0 0 0 0 0 0 0 0 0 0 0 0 0 0 0 0 127 0"/>
<feOffset dy="4"/>
<feGaussianBlur stdDeviation="2"/>
<feColorMatrix type="matrix" values="0 0 0 0 0 0 0 0 0 0 0 0 0 0 0 0 0 0 0.25 0"/>
<feBlend mode="normal" in2="BackgroundImageFix" result="effect1_dropShadow"/>
<feBlend mode="normal" in="SourceGraphic" in2="effect1_dropShadow" result="shape"/>
</filter>
</defs>
</svg>
